<?xml version="1.0" encoding="UTF-8"?>
<svg xmlns="http://www.w3.org/2000/svg" xmlns:xlink="http://www.w3.org/1999/xlink" width="100px" height="31px" viewBox="0 0 100 31" version="1.1">
<g id="surface1">
<path style=" stroke:none;fill-rule:nonzero;fill:rgb(81.960784%,93.72549%,98.039216%);fill-opacity:1;" d="M 49.5625 31.039062 L 49.5625 30.988281 C 49.613281 30.925781 49.699219 30.886719 49.773438 30.898438 C 50.136719 30.886719 50.488281 30.886719 50.851562 30.898438 C 50.925781 30.898438 51.011719 30.925781 51.0625 30.988281 L 51.0625 31.039062 Z M 49.5625 31.039062 "/>
<path style=" stroke:none;fill-rule:nonzero;fill:rgb(0%,65.882353%,88.235294%);fill-opacity:1;" d="M 51.0625 30.988281 C 50.5625 30.976562 50.0625 30.976562 49.5625 30.988281 C 48.875 30.949219 48.1875 30.925781 47.5 30.875 C 45.675781 30.734375 43.863281 30.457031 42.085938 30.042969 C 35.949219 28.605469 30.5625 25.71875 25.863281 21.523438 C 25.425781 21.132812 25.011719 20.730469 24.585938 20.328125 C 24.488281 20.238281 24.398438 20.113281 24.351562 19.984375 C 24.273438 19.808594 24.3125 19.621094 24.4375 19.480469 C 24.5625 19.34375 24.761719 19.292969 24.9375 19.367188 C 25.050781 19.417969 25.164062 19.46875 25.261719 19.53125 C 29.75 22.332031 34.648438 24.371094 39.789062 25.582031 C 41.511719 25.984375 43.25 26.300781 45 26.527344 C 47.511719 26.839844 50.050781 26.953125 52.574219 26.867188 C 53.9375 26.828125 55.289062 26.703125 56.636719 26.527344 C 59.789062 26.125 62.898438 25.40625 65.914062 24.398438 C 67.5 23.867188 69.050781 23.261719 70.5625 22.558594 C 70.789062 22.429688 71.0625 22.394531 71.3125 22.457031 C 71.726562 22.558594 71.976562 22.984375 71.875 23.402344 C 71.863281 23.453125 71.835938 23.515625 71.8125 23.566406 C 71.710938 23.753906 71.574219 23.917969 71.398438 24.042969 C 69.960938 25.179688 68.414062 26.171875 66.773438 27.003906 C 63.6875 28.582031 60.386719 29.703125 56.988281 30.34375 C 55.023438 30.699219 53.050781 30.910156 51.0625 30.988281 Z M 51.0625 30.988281 "/>
<path style=" stroke:none;fill-rule:nonzero;fill:rgb(0%,65.882353%,88.235294%);fill-opacity:1;" d="M 32.550781 5.445312 C 32.863281 5.253906 33.1875 5.054688 33.523438 4.875 C 34.398438 4.421875 35.375 4.195312 36.363281 4.246094 C 37.074219 4.285156 37.726562 4.484375 38.226562 5.015625 C 38.699219 5.507812 38.875 6.113281 38.925781 6.765625 C 38.9375 6.90625 38.9375 7.042969 38.9375 7.195312 L 38.9375 13.722656 C 38.9375 14.289062 38.863281 14.367188 38.300781 14.367188 L 36.773438 14.367188 C 36.675781 14.367188 36.574219 14.367188 36.476562 14.351562 C 36.324219 14.339844 36.199219 14.214844 36.175781 14.0625 C 36.148438 13.925781 36.148438 13.785156 36.148438 13.648438 L 36.148438 7.8125 C 36.164062 7.574219 36.136719 7.347656 36.074219 7.121094 C 35.976562 6.730469 35.625 6.453125 35.226562 6.425781 C 34.488281 6.375 33.75 6.527344 33.074219 6.84375 C 32.976562 6.867188 32.914062 6.96875 32.925781 7.070312 L 32.925781 13.699219 C 32.925781 13.824219 32.925781 13.9375 32.898438 14.0625 C 32.898438 14.238281 32.761719 14.367188 32.585938 14.367188 C 32.398438 14.378906 32.210938 14.378906 32.011719 14.378906 L 30.6875 14.378906 C 30.226562 14.378906 30.125 14.265625 30.125 13.796875 L 30.125 7.839844 C 30.125 7.625 30.113281 7.398438 30.0625 7.183594 C 29.976562 6.753906 29.613281 6.453125 29.1875 6.425781 C 28.4375 6.375 27.675781 6.527344 27 6.855469 C 26.898438 6.878906 26.835938 6.992188 26.863281 7.09375 L 26.863281 13.8125 C 26.863281 14.277344 26.761719 14.378906 26.300781 14.378906 L 24.625 14.378906 C 24.1875 14.378906 24.074219 14.253906 24.074219 13.824219 L 24.074219 5.078125 C 24.074219 4.976562 24.085938 4.875 24.113281 4.777344 C 24.164062 4.625 24.3125 4.535156 24.460938 4.535156 L 26.023438 4.535156 C 26.25 4.535156 26.386719 4.675781 26.460938 4.890625 C 26.523438 5.066406 26.5625 5.230469 26.625 5.417969 C 26.75 5.417969 26.824219 5.332031 26.914062 5.28125 C 27.601562 4.851562 28.324219 4.484375 29.136719 4.335938 C 29.761719 4.207031 30.386719 4.207031 31.011719 4.335938 C 31.601562 4.460938 32.125 4.8125 32.460938 5.316406 C 32.488281 5.355469 32.511719 5.382812 32.539062 5.40625 C 32.523438 5.417969 32.539062 5.417969 32.550781 5.445312 Z M 32.550781 5.445312 "/>
<path style=" stroke:none;fill-rule:nonzero;fill:rgb(13.72549%,18.431373%,24.313725%);fill-opacity:1;" d="M 58.460938 11.71875 C 58.539062 11.46875 58.613281 11.226562 58.6875 10.976562 C 59.261719 9.023438 59.835938 7.082031 60.414062 5.128906 L 60.488281 4.902344 C 60.550781 4.675781 60.761719 4.535156 60.988281 4.535156 L 62.886719 4.535156 C 63.363281 4.535156 63.460938 4.675781 63.300781 5.128906 L 62.550781 7.132812 C 61.710938 9.324219 60.875 11.53125 60.039062 13.722656 C 60.011719 13.796875 59.976562 13.875 59.949219 13.949219 C 59.863281 14.214844 59.601562 14.390625 59.324219 14.367188 C 58.773438 14.351562 58.226562 14.351562 57.675781 14.367188 C 57.289062 14.378906 57.0625 14.203125 56.925781 13.847656 C 56.613281 13.015625 56.289062 12.171875 55.976562 11.339844 C 55.226562 9.363281 54.460938 7.382812 53.710938 5.394531 C 53.636719 5.242188 53.585938 5.066406 53.550781 4.902344 C 53.511719 4.648438 53.601562 4.523438 53.851562 4.523438 C 54.5625 4.511719 55.273438 4.523438 55.976562 4.523438 C 56.273438 4.523438 56.414062 4.726562 56.488281 4.992188 C 56.625 5.46875 56.761719 5.960938 56.914062 6.4375 C 57.425781 8.191406 57.925781 9.957031 58.4375 11.707031 C 58.425781 11.71875 58.4375 11.71875 58.460938 11.71875 Z M 58.460938 11.71875 "/>
<path style=" stroke:none;fill-rule:nonzero;fill:rgb(0%,65.882353%,88.235294%);fill-opacity:1;" d="M 14.074219 5.921875 C 14.164062 5.898438 14.238281 5.847656 14.289062 5.773438 C 14.511719 5.542969 14.75 5.332031 15 5.128906 C 15.648438 4.625 16.460938 4.371094 17.273438 4.4375 C 17.601562 4.449219 17.710938 4.550781 17.738281 4.863281 C 17.761719 5.292969 17.75 5.734375 17.75 6.164062 C 17.761719 6.339844 17.75 6.503906 17.726562 6.679688 C 17.675781 6.90625 17.585938 6.992188 17.363281 7.019531 C 17.1875 7.03125 17.023438 7.019531 16.851562 7.007812 C 16.011719 6.929688 15.199219 7.09375 14.414062 7.359375 C 14.238281 7.421875 14.238281 7.546875 14.238281 7.6875 L 14.238281 13.734375 C 14.238281 13.847656 14.238281 13.949219 14.226562 14.0625 C 14.210938 14.226562 14.085938 14.351562 13.925781 14.351562 C 13.835938 14.367188 13.738281 14.367188 13.648438 14.367188 L 12.023438 14.367188 C 11.9375 14.367188 11.835938 14.367188 11.75 14.351562 C 11.585938 14.339844 11.460938 14.203125 11.449219 14.039062 C 11.4375 13.9375 11.4375 13.835938 11.4375 13.734375 L 11.4375 5.167969 C 11.4375 4.585938 11.5 4.523438 12.074219 4.523438 L 13.273438 4.523438 C 13.601562 4.523438 13.75 4.636719 13.835938 4.953125 C 13.925781 5.265625 14 5.582031 14.074219 5.921875 Z M 14.074219 5.921875 "/>
<path style=" stroke:none;fill-rule:nonzero;fill:rgb(0%,65.882353%,88.235294%);fill-opacity:1;" d="M 72.550781 18.699219 C 73.375 18.726562 74.1875 18.777344 74.988281 18.992188 C 75.210938 19.054688 75.425781 19.128906 75.636719 19.230469 C 75.925781 19.34375 76.113281 19.621094 76.148438 19.921875 C 76.199219 20.277344 76.210938 20.640625 76.1875 21.007812 C 76.023438 23.160156 75.363281 25.242188 74.261719 27.09375 C 73.863281 27.761719 73.375 28.367188 72.8125 28.894531 C 72.699219 29.007812 72.5625 29.097656 72.414062 29.148438 C 72.175781 29.210938 72.023438 29.085938 72.011719 28.84375 C 72.023438 28.71875 72.050781 28.59375 72.101562 28.46875 C 72.539062 27.28125 72.960938 26.109375 73.300781 24.886719 C 73.5 24.21875 73.636719 23.539062 73.726562 22.847656 C 73.75 22.59375 73.761719 22.34375 73.738281 22.089844 C 73.726562 21.664062 73.449219 21.296875 73.039062 21.171875 C 72.648438 21.042969 72.25 20.96875 71.835938 20.945312 C 70.6875 20.894531 69.539062 20.945312 68.398438 21.09375 L 66.886719 21.285156 C 66.726562 21.296875 66.574219 21.285156 66.488281 21.132812 C 66.398438 20.980469 66.4375 20.832031 66.523438 20.679688 C 66.625 20.539062 66.75 20.414062 66.898438 20.328125 C 67.824219 19.660156 68.863281 19.253906 69.960938 18.992188 C 70.8125 18.8125 71.675781 18.726562 72.550781 18.699219 Z M 72.550781 18.699219 "/>
<path style=" stroke:none;fill-rule:nonzero;fill:rgb(13.72549%,18.431373%,24.313725%);fill-opacity:1;" d="M 67.3125 9.453125 L 67.3125 13.988281 C 67.289062 14.238281 67.175781 14.351562 66.925781 14.367188 C 66.25 14.378906 65.585938 14.378906 64.914062 14.367188 C 64.664062 14.367188 64.550781 14.238281 64.523438 14 C 64.511719 13.925781 64.511719 13.835938 64.511719 13.761719 L 64.511719 5.039062 C 64.523438 4.648438 64.625 4.535156 65.011719 4.535156 L 66.8125 4.535156 C 67.199219 4.535156 67.3125 4.648438 67.3125 5.039062 Z M 67.3125 9.453125 "/>
<path style=" stroke:none;fill-rule:nonzero;fill:rgb(0%,65.882353%,88.235294%);fill-opacity:1;" d="M 18.949219 9.425781 L 18.949219 4.953125 C 18.960938 4.648438 19.074219 4.535156 19.375 4.523438 C 20.023438 4.511719 20.675781 4.511719 21.324219 4.523438 C 21.613281 4.523438 21.699219 4.613281 21.726562 4.902344 C 21.738281 5.015625 21.738281 5.117188 21.738281 5.230469 L 21.738281 13.621094 C 21.738281 13.761719 21.726562 13.898438 21.710938 14.039062 C 21.699219 14.203125 21.574219 14.316406 21.414062 14.328125 C 21.335938 14.339844 21.273438 14.339844 21.199219 14.339844 L 19.460938 14.339844 C 19.398438 14.339844 19.351562 14.339844 19.289062 14.328125 C 19.113281 14.316406 18.960938 14.175781 18.949219 14 C 18.9375 13.898438 18.9375 13.796875 18.9375 13.699219 C 18.949219 12.300781 18.949219 10.863281 18.949219 9.425781 Z M 18.949219 9.425781 "/>
<path style=" stroke:none;fill-rule:nonzero;fill:rgb(0%,65.882353%,88.235294%);fill-opacity:1;" d="M 20.398438 0.0117188 C 20.601562 0 20.800781 0.0390625 20.988281 0.101562 C 21.664062 0.328125 22.011719 0.917969 21.949219 1.6875 C 21.898438 2.34375 21.414062 2.875 20.761719 2.972656 C 20.488281 3.023438 20.199219 3.023438 19.925781 2.972656 C 19.210938 2.835938 18.6875 2.304688 18.738281 1.398438 C 18.8125 0.503906 19.398438 0.0117188 20.398438 0.0117188 Z M 20.398438 0.0117188 "/>
<path style=" stroke:none;fill-rule:nonzero;fill:rgb(13.72549%,18.431373%,24.313725%);fill-opacity:1;" d="M 65.925781 0.0117188 C 66.175781 -0.0117188 66.425781 0.0390625 66.664062 0.136719 C 67.148438 0.328125 67.488281 0.78125 67.511719 1.3125 C 67.613281 2.457031 66.851562 3.035156 65.835938 3.011719 C 65.699219 3.011719 65.5625 2.988281 65.425781 2.960938 C 64.648438 2.773438 64.25 2.167969 64.324219 1.296875 C 64.386719 0.605469 64.925781 0.0898438 65.664062 0.0234375 C 65.75 0.0117188 65.835938 0 65.925781 0.0117188 Z M 65.925781 0.0117188 "/>
<path style=" stroke:none;fill-rule:nonzero;fill:rgb(0%,65.882353%,88.235294%);fill-opacity:1;" d="M 9.585938 8.394531 C 9.539062 7.738281 9.363281 7.09375 9.101562 6.503906 C 8.585938 5.417969 7.800781 4.625 6.601562 4.347656 C 5.226562 4.046875 3.988281 4.347656 2.863281 5.191406 C 2.789062 5.265625 2.699219 5.332031 2.601562 5.382812 C 2.574219 5.367188 2.550781 5.355469 2.550781 5.34375 C 2.511719 5.21875 2.488281 5.089844 2.449219 4.964844 C 2.351562 4.648438 2.226562 4.535156 1.886719 4.535156 C 1.511719 4.535156 1.125 4.550781 0.75 4.535156 C 0.460938 4.523438 0.199219 4.5625 0 4.789062 C 0 9.199219 0 13.621094 0.0117188 18.019531 C 0.175781 18.285156 0.425781 18.335938 0.710938 18.324219 C 1.164062 18.308594 1.613281 18.324219 2.0625 18.324219 C 2.851562 18.324219 2.851562 18.324219 2.851562 17.542969 L 2.851562 13.949219 C 2.851562 13.863281 2.8125 13.761719 2.898438 13.683594 C 3.523438 14.175781 4.289062 14.480469 5.074219 14.554688 C 6.175781 14.667969 7.175781 14.390625 8.011719 13.636719 C 8.625 13.066406 9.074219 12.335938 9.3125 11.53125 C 9.648438 10.496094 9.675781 9.453125 9.585938 8.394531 Z M 6.601562 11 C 6.511719 11.390625 6.3125 11.746094 6.023438 12.007812 C 5.699219 12.285156 5.300781 12.449219 4.875 12.449219 C 4.238281 12.488281 3.613281 12.347656 3.050781 12.046875 C 2.914062 11.984375 2.824219 11.84375 2.835938 11.695312 L 2.835938 9.414062 C 2.835938 8.65625 2.851562 7.902344 2.835938 7.144531 C 2.824219 6.96875 2.925781 6.816406 3.085938 6.753906 C 3.773438 6.425781 4.488281 6.277344 5.238281 6.425781 C 5.761719 6.503906 6.210938 6.84375 6.425781 7.335938 C 6.613281 7.738281 6.726562 8.179688 6.75 8.621094 C 6.824219 9.425781 6.824219 10.234375 6.601562 11 Z M 6.601562 11 "/>
<path style=" stroke:none;fill-rule:nonzero;fill:rgb(13.72549%,18.431373%,24.313725%);fill-opacity:1;" d="M 100.023438 8.667969 L 100.023438 8.71875 C 99.976562 8.667969 99.949219 8.59375 99.976562 8.53125 L 99.976562 8.429688 C 99.976562 8.429688 99.976562 8.417969 99.988281 8.417969 L 99.976562 8.417969 L 99.976562 8.292969 L 100 8.292969 C 100 8.277344 99.988281 8.277344 99.988281 8.265625 C 99.960938 8.027344 99.914062 7.789062 99.851562 7.5625 C 99.386719 5.898438 98.351562 4.800781 96.664062 4.371094 C 95.875 4.183594 95.074219 4.160156 94.273438 4.285156 C 92.585938 4.535156 91.375 5.445312 90.789062 7.058594 C 90.210938 8.59375 90.226562 10.28125 90.800781 11.820312 C 91.300781 13.21875 92.300781 14.101562 93.738281 14.464844 C 94.5 14.65625 95.300781 14.707031 96.085938 14.59375 C 98.710938 14.277344 99.800781 12.273438 99.976562 10.535156 L 99.960938 10.535156 L 99.960938 10.359375 C 99.949219 10.28125 99.9375 10.21875 100.011719 10.167969 L 100.011719 10.195312 C 100.011719 10.183594 100.023438 10.15625 100.039062 10.144531 L 100.039062 8.695312 C 100.039062 8.683594 100.023438 8.683594 100.023438 8.667969 Z M 97.023438 11.0625 C 96.949219 11.328125 96.835938 11.566406 96.675781 11.796875 C 96.398438 12.1875 95.960938 12.4375 95.488281 12.476562 C 95.25 12.5 95.011719 12.5 94.773438 12.449219 C 94.25 12.347656 93.8125 11.996094 93.601562 11.503906 C 93.414062 11.113281 93.300781 10.6875 93.261719 10.257812 C 93.199219 9.515625 93.1875 8.769531 93.363281 8.039062 C 93.425781 7.75 93.550781 7.460938 93.699219 7.207031 C 93.976562 6.753906 94.449219 6.464844 94.976562 6.425781 C 95.210938 6.402344 95.449219 6.402344 95.6875 6.453125 C 96.1875 6.554688 96.601562 6.878906 96.824219 7.347656 C 97.039062 7.789062 97.164062 8.277344 97.1875 8.769531 C 97.199219 8.996094 97.210938 9.222656 97.199219 9.453125 C 97.238281 10.003906 97.175781 10.546875 97.023438 11.0625 Z M 97.023438 11.0625 "/>
<path style=" stroke:none;fill-rule:nonzero;fill:rgb(13.72549%,18.431373%,24.313725%);fill-opacity:1;" d="M 78.113281 0.101562 L 76.375 0.101562 C 75.898438 0.101562 75.8125 0.1875 75.8125 0.667969 L 75.8125 4.75 C 75.8125 4.839844 75.851562 4.925781 75.789062 5.015625 C 75.675781 5.003906 75.613281 4.925781 75.523438 4.875 C 74.226562 4.109375 72.863281 3.96875 71.488281 4.613281 C 70.523438 5.066406 69.925781 5.886719 69.539062 6.855469 C 69.164062 7.789062 69.074219 8.769531 69.101562 9.765625 C 69.101562 10.699219 69.3125 11.617188 69.726562 12.449219 C 70.199219 13.371094 70.886719 14.074219 71.886719 14.378906 C 73.25 14.808594 74.523438 14.59375 75.6875 13.722656 C 75.773438 13.671875 75.824219 13.585938 75.9375 13.558594 C 76 13.699219 76.050781 13.847656 76.074219 14 C 76.125 14.203125 76.300781 14.339844 76.511719 14.339844 L 76.8125 14.339844 C 77.261719 14.339844 77.699219 14.351562 78.136719 14.339844 C 78.488281 14.339844 78.585938 14.226562 78.601562 13.863281 L 78.601562 0.578125 C 78.585938 0.1875 78.488281 0.101562 78.113281 0.101562 Z M 75.824219 9.375 L 75.824219 11.667969 C 75.851562 11.820312 75.761719 11.957031 75.625 12.023438 C 75.023438 12.363281 74.335938 12.5 73.664062 12.398438 C 73.085938 12.335938 72.585938 11.984375 72.324219 11.46875 C 72.125 11.0625 72.011719 10.636719 71.976562 10.195312 C 71.875 9.402344 71.9375 8.59375 72.125 7.824219 C 72.1875 7.613281 72.261719 7.410156 72.375 7.207031 C 72.636719 6.714844 73.136719 6.402344 73.6875 6.363281 C 74.351562 6.300781 75.011719 6.425781 75.613281 6.703125 C 75.761719 6.753906 75.851562 6.90625 75.835938 7.070312 C 75.8125 7.851562 75.824219 8.605469 75.824219 9.375 Z M 75.824219 9.375 "/>
<path style=" stroke:none;fill-rule:nonzero;fill:rgb(0%,65.882353%,88.235294%);fill-opacity:1;" d="M 43.5 10.246094 C 44.4375 10.421875 45.398438 10.433594 46.335938 10.28125 C 46.886719 10.207031 47.414062 10.042969 47.898438 9.777344 C 48.460938 9.453125 48.875 8.996094 49.050781 8.367188 C 49.488281 6.78125 48.8125 5.179688 47.175781 4.585938 C 46.375 4.324219 45.523438 4.234375 44.6875 4.347656 C 42.710938 4.574219 41.425781 5.671875 40.835938 7.574219 C 40.425781 8.871094 40.476562 10.195312 40.8125 11.503906 C 41.25 13.179688 42.351562 14.175781 44.011719 14.53125 C 44.960938 14.742188 45.925781 14.707031 46.875 14.554688 C 47.375 14.464844 47.875 14.339844 48.351562 14.152344 C 48.636719 14.039062 48.789062 13.863281 48.773438 13.535156 C 48.761719 13.230469 48.773438 12.917969 48.773438 12.601562 C 48.773438 12.222656 48.625 12.109375 48.261719 12.199219 C 47.898438 12.285156 47.550781 12.363281 47.1875 12.4375 C 46.414062 12.601562 45.613281 12.601562 44.835938 12.464844 C 43.773438 12.25 43.085938 11.328125 43.148438 10.195312 C 43.261719 10.207031 43.386719 10.21875 43.5 10.246094 Z M 43.1875 8.316406 C 43.226562 8.015625 43.3125 7.726562 43.425781 7.449219 C 43.800781 6.527344 44.585938 6.210938 45.386719 6.261719 C 45.613281 6.277344 45.835938 6.324219 46.050781 6.414062 C 46.375 6.554688 46.585938 6.855469 46.625 7.207031 C 46.664062 7.421875 46.648438 7.648438 46.585938 7.863281 C 46.4375 8.316406 46.074219 8.507812 45.636719 8.59375 C 45.375 8.65625 45.101562 8.683594 44.824219 8.65625 C 44.335938 8.65625 43.835938 8.621094 43.351562 8.542969 C 43.164062 8.519531 43.164062 8.519531 43.1875 8.316406 Z M 43.1875 8.316406 "/>
<path style=" stroke:none;fill-rule:nonzero;fill:rgb(13.72549%,18.431373%,24.313725%);fill-opacity:1;" d="M 85.664062 10.371094 C 86.386719 10.320312 87.113281 10.183594 87.761719 9.828125 C 88.425781 9.5 88.886719 8.882812 89.023438 8.152344 C 89.113281 7.699219 89.113281 7.222656 89.011719 6.765625 C 88.75 5.632812 88.039062 4.925781 86.960938 4.5625 C 86.363281 4.371094 85.726562 4.296875 85.101562 4.324219 C 83 4.371094 81.398438 5.445312 80.75 7.5625 C 80.3125 8.960938 80.375 10.382812 80.800781 11.78125 C 81.238281 13.21875 82.238281 14.089844 83.664062 14.480469 C 84.273438 14.628906 84.914062 14.695312 85.539062 14.667969 C 86.449219 14.65625 87.363281 14.480469 88.226562 14.152344 C 88.585938 14.011719 88.675781 13.886719 88.675781 13.496094 L 88.675781 12.589844 C 88.664062 12.222656 88.511719 12.097656 88.148438 12.1875 C 87.875 12.261719 87.613281 12.324219 87.335938 12.386719 C 86.5 12.589844 85.625 12.625 84.773438 12.476562 C 83.925781 12.3125 83.351562 11.820312 83.125 10.964844 C 83.0625 10.710938 83.011719 10.460938 82.988281 10.195312 C 83.050781 10.195312 83.113281 10.195312 83.164062 10.21875 C 83.988281 10.371094 84.824219 10.433594 85.664062 10.371094 Z M 83.050781 8.355469 C 83.136719 7.863281 83.25 7.382812 83.550781 6.980469 C 84.011719 6.363281 84.648438 6.1875 85.375 6.261719 C 85.4375 6.261719 85.488281 6.289062 85.550781 6.289062 C 86.425781 6.425781 86.636719 7.132812 86.476562 7.8125 C 86.351562 8.316406 85.9375 8.507812 85.476562 8.59375 C 85.226562 8.644531 84.960938 8.667969 84.699219 8.65625 C 84.1875 8.644531 83.6875 8.605469 83.1875 8.53125 C 83.074219 8.519531 83.023438 8.46875 83.050781 8.355469 Z M 83.050781 8.355469 "/>
</g>
</svg>
